<mxfile host="app.diagrams.net" modified="2022-01-17T06:16:10.048Z" agent="5.0 (Windows NT 10.0; Win64; x64) AppleWebKit/537.36 (KHTML, like Gecko) Chrome/97.0.4692.71 Safari/537.36" etag="x4CW5mL2r6OKSOlLC_-0" version="16.2.7" type="github">
  <diagram id="C5RBs43oDa-KdzZeNtuy" name="Page-1">
    <mxGraphModel dx="788" dy="585" grid="1" gridSize="10" guides="1" tooltips="1" connect="1" arrows="1" fold="1" page="1" pageScale="1" pageWidth="827" pageHeight="1169" math="0" shadow="0">
      <root>
        <mxCell id="WIyWlLk6GJQsqaUBKTNV-0" />
        <mxCell id="WIyWlLk6GJQsqaUBKTNV-1" parent="WIyWlLk6GJQsqaUBKTNV-0" />
        <mxCell id="MgLEf6diQMLtDa7vrzc0-2" value="" style="edgeStyle=orthogonalEdgeStyle;rounded=0;orthogonalLoop=1;jettySize=auto;html=1;" edge="1" parent="WIyWlLk6GJQsqaUBKTNV-1" source="MgLEf6diQMLtDa7vrzc0-0" target="MgLEf6diQMLtDa7vrzc0-1">
          <mxGeometry relative="1" as="geometry" />
        </mxCell>
        <mxCell id="MgLEf6diQMLtDa7vrzc0-0" value="开始" style="rounded=1;whiteSpace=wrap;html=1;" vertex="1" parent="WIyWlLk6GJQsqaUBKTNV-1">
          <mxGeometry x="325.5" y="40" width="126" height="40" as="geometry" />
        </mxCell>
        <mxCell id="MgLEf6diQMLtDa7vrzc0-6" value="" style="edgeStyle=orthogonalEdgeStyle;rounded=0;orthogonalLoop=1;jettySize=auto;html=1;" edge="1" parent="WIyWlLk6GJQsqaUBKTNV-1" source="MgLEf6diQMLtDa7vrzc0-1" target="MgLEf6diQMLtDa7vrzc0-5">
          <mxGeometry relative="1" as="geometry" />
        </mxCell>
        <mxCell id="MgLEf6diQMLtDa7vrzc0-1" value="从池中获取数据" style="whiteSpace=wrap;html=1;rounded=1;" vertex="1" parent="WIyWlLk6GJQsqaUBKTNV-1">
          <mxGeometry x="325.5" y="130" width="124.5" height="50" as="geometry" />
        </mxCell>
        <mxCell id="MgLEf6diQMLtDa7vrzc0-15" value="" style="edgeStyle=orthogonalEdgeStyle;rounded=0;orthogonalLoop=1;jettySize=auto;html=1;fontSize=12;" edge="1" parent="WIyWlLk6GJQsqaUBKTNV-1" source="MgLEf6diQMLtDa7vrzc0-5" target="MgLEf6diQMLtDa7vrzc0-14">
          <mxGeometry relative="1" as="geometry" />
        </mxCell>
        <mxCell id="MgLEf6diQMLtDa7vrzc0-16" value="" style="edgeStyle=orthogonalEdgeStyle;rounded=0;orthogonalLoop=1;jettySize=auto;html=1;fontSize=12;" edge="1" parent="WIyWlLk6GJQsqaUBKTNV-1" source="MgLEf6diQMLtDa7vrzc0-5" target="MgLEf6diQMLtDa7vrzc0-14">
          <mxGeometry relative="1" as="geometry" />
        </mxCell>
        <mxCell id="MgLEf6diQMLtDa7vrzc0-18" style="edgeStyle=orthogonalEdgeStyle;rounded=0;orthogonalLoop=1;jettySize=auto;html=1;exitX=0.5;exitY=1;exitDx=0;exitDy=0;entryX=0.5;entryY=0;entryDx=0;entryDy=0;fontSize=12;" edge="1" parent="WIyWlLk6GJQsqaUBKTNV-1" source="MgLEf6diQMLtDa7vrzc0-5" target="MgLEf6diQMLtDa7vrzc0-17">
          <mxGeometry relative="1" as="geometry" />
        </mxCell>
        <mxCell id="MgLEf6diQMLtDa7vrzc0-5" value="从回调是否有序的角度，进行数据转换" style="whiteSpace=wrap;html=1;rounded=1;" vertex="1" parent="WIyWlLk6GJQsqaUBKTNV-1">
          <mxGeometry x="328.5" y="232.5" width="120" height="60" as="geometry" />
        </mxCell>
        <mxCell id="MgLEf6diQMLtDa7vrzc0-29" style="edgeStyle=orthogonalEdgeStyle;rounded=0;orthogonalLoop=1;jettySize=auto;html=1;exitX=0.5;exitY=1;exitDx=0;exitDy=0;fontSize=12;" edge="1" parent="WIyWlLk6GJQsqaUBKTNV-1" source="MgLEf6diQMLtDa7vrzc0-14" target="MgLEf6diQMLtDa7vrzc0-24">
          <mxGeometry relative="1" as="geometry" />
        </mxCell>
        <mxCell id="MgLEf6diQMLtDa7vrzc0-14" value="对于需要保持有序的第三方，以订单为维度划分" style="whiteSpace=wrap;html=1;rounded=1;" vertex="1" parent="WIyWlLk6GJQsqaUBKTNV-1">
          <mxGeometry x="250" y="340" width="120" height="60" as="geometry" />
        </mxCell>
        <mxCell id="MgLEf6diQMLtDa7vrzc0-35" style="edgeStyle=orthogonalEdgeStyle;rounded=0;orthogonalLoop=1;jettySize=auto;html=1;exitX=0.5;exitY=1;exitDx=0;exitDy=0;entryX=0.5;entryY=0;entryDx=0;entryDy=0;fontSize=12;" edge="1" parent="WIyWlLk6GJQsqaUBKTNV-1" source="MgLEf6diQMLtDa7vrzc0-17" target="MgLEf6diQMLtDa7vrzc0-30">
          <mxGeometry relative="1" as="geometry" />
        </mxCell>
        <mxCell id="MgLEf6diQMLtDa7vrzc0-17" value="对于不在乎回调顺序的第三方，每一条回调记录是一个维度" style="whiteSpace=wrap;html=1;rounded=1;" vertex="1" parent="WIyWlLk6GJQsqaUBKTNV-1">
          <mxGeometry x="414" y="340" width="120" height="60" as="geometry" />
        </mxCell>
        <mxCell id="MgLEf6diQMLtDa7vrzc0-24" value="Map&lt;String, List&gt;" style="swimlane;fontStyle=0;childLayout=stackLayout;horizontal=1;startSize=30;horizontalStack=0;resizeParent=1;resizeParentMax=0;resizeLast=0;collapsible=1;marginBottom=0;fontSize=12;" vertex="1" parent="WIyWlLk6GJQsqaUBKTNV-1">
          <mxGeometry x="240" y="440" width="140" height="150" as="geometry" />
        </mxCell>
        <mxCell id="MgLEf6diQMLtDa7vrzc0-25" value="key=订单id，value=list(&#xa;订单下的回调记录集合)" style="text;strokeColor=none;fillColor=none;align=left;verticalAlign=middle;spacingLeft=4;spacingRight=4;overflow=hidden;points=[[0,0.5],[1,0.5]];portConstraint=eastwest;rotatable=0;fontSize=12;" vertex="1" parent="MgLEf6diQMLtDa7vrzc0-24">
          <mxGeometry y="30" width="140" height="30" as="geometry" />
        </mxCell>
        <mxCell id="MgLEf6diQMLtDa7vrzc0-26" value="key=订单id，value=list(&#xa;订单下的回调记录集合)" style="text;strokeColor=none;fillColor=none;align=left;verticalAlign=middle;spacingLeft=4;spacingRight=4;overflow=hidden;points=[[0,0.5],[1,0.5]];portConstraint=eastwest;rotatable=0;fontSize=12;" vertex="1" parent="MgLEf6diQMLtDa7vrzc0-24">
          <mxGeometry y="60" width="140" height="40" as="geometry" />
        </mxCell>
        <mxCell id="MgLEf6diQMLtDa7vrzc0-27" value="key=订单id，value=list(&#xa;订单下的回调记录集合)" style="text;strokeColor=none;fillColor=none;align=left;verticalAlign=middle;spacingLeft=4;spacingRight=4;overflow=hidden;points=[[0,0.5],[1,0.5]];portConstraint=eastwest;rotatable=0;fontSize=12;" vertex="1" parent="MgLEf6diQMLtDa7vrzc0-24">
          <mxGeometry y="100" width="140" height="50" as="geometry" />
        </mxCell>
        <mxCell id="MgLEf6diQMLtDa7vrzc0-30" value="Map&lt;String, List&gt;" style="swimlane;fontStyle=0;childLayout=stackLayout;horizontal=1;startSize=30;horizontalStack=0;resizeParent=1;resizeParentMax=0;resizeLast=0;collapsible=1;marginBottom=0;fontSize=12;" vertex="1" parent="WIyWlLk6GJQsqaUBKTNV-1">
          <mxGeometry x="399" y="440" width="150" height="150" as="geometry" />
        </mxCell>
        <mxCell id="MgLEf6diQMLtDa7vrzc0-31" value="key=回调记录id，&#xa;value=list(一个回调记录)" style="text;strokeColor=none;fillColor=none;align=left;verticalAlign=middle;spacingLeft=4;spacingRight=4;overflow=hidden;points=[[0,0.5],[1,0.5]];portConstraint=eastwest;rotatable=0;fontSize=12;" vertex="1" parent="MgLEf6diQMLtDa7vrzc0-30">
          <mxGeometry y="30" width="150" height="30" as="geometry" />
        </mxCell>
        <mxCell id="MgLEf6diQMLtDa7vrzc0-32" value="key=回调记录id，&#xa;value=list(一个回调记录)" style="text;strokeColor=none;fillColor=none;align=left;verticalAlign=middle;spacingLeft=4;spacingRight=4;overflow=hidden;points=[[0,0.5],[1,0.5]];portConstraint=eastwest;rotatable=0;fontSize=12;" vertex="1" parent="MgLEf6diQMLtDa7vrzc0-30">
          <mxGeometry y="60" width="150" height="50" as="geometry" />
        </mxCell>
        <mxCell id="MgLEf6diQMLtDa7vrzc0-33" value="key=回调记录id，&#xa;value=list(一个回调记录)" style="text;strokeColor=none;fillColor=none;align=left;verticalAlign=middle;spacingLeft=4;spacingRight=4;overflow=hidden;points=[[0,0.5],[1,0.5]];portConstraint=eastwest;rotatable=0;fontSize=12;" vertex="1" parent="MgLEf6diQMLtDa7vrzc0-30">
          <mxGeometry y="110" width="150" height="40" as="geometry" />
        </mxCell>
      </root>
    </mxGraphModel>
  </diagram>
</mxfile>
